<svg xmlns="http://www.w3.org/2000/svg" xmlns:xlink="http://www.w3.org/1999/xlink" viewBox="0,0,256,256" width="500px" height="500px"><g fill="#000000" fill-rule="nonzero" stroke="none" stroke-width="1" stroke-linecap="butt" stroke-linejoin="miter" stroke-miterlimit="10" stroke-dasharray="" stroke-dashoffset="0" font-family="none" font-weight="none" font-size="none" text-anchor="none" style="mix-blend-mode: normal"><g transform="scale(5.12,5.12)"><path d="M40,0h-30c-5.51562,0 -10,4.48438 -10,10v30c0,5.51563 4.48438,10 10,10h30c5.51563,0 10,-4.48437 10,-10v-30c0,-5.51562 -4.48437,-10 -10,-10zM34,40.23828c0,0.125 -0.05469,0.24219 -0.14453,0.32422c-0.11719,0.10156 -2.84375,2.4375 -9.11328,2.4375c-7.51172,0 -7.74219,-8.38281 -7.74219,-9.33594v-10.65234l-3.57031,-0.01172c-0.23828,0 -0.42969,-0.18359 -0.42969,-0.42187v-3.76953c0,-0.17578 0.10938,-0.33594 0.27344,-0.40234c0.07031,-0.02344 6.78516,-2.63281 6.78516,-8.97656c0,-0.23828 0.19531,-0.42969 0.43359,-0.42969h4.08594c0.23828,0 0.42969,0.19141 0.42969,0.42969l-0.00781,7.57031h6.5625c0.23828,0 0.42969,0.20703 0.42969,0.44531v5.10938c0,0.23438 -0.19141,0.44531 -0.42969,0.44531h-6.5625c0,0 0,10.25391 0,10.50391c0,0.24609 0.22656,3.26172 3.43359,3.26172c2.65625,0 4.88672,-1.36719 4.91016,-1.38281c0.13281,-0.08594 0.29688,-0.08984 0.43359,-0.01172c0.13672,0.07422 0.22266,0.21875 0.22266,0.375z"></path></g></g></svg>